<svg width="453" height="700" viewBox="0 0 453 700" fill="none" xmlns="http://www.w3.org/2000/svg">
<g clip-path="url(#clip0)">
<rect width="833" height="453" transform="translate(0 767) rotate(-90)" fill="white"/>
<g opacity="0.6">
<path opacity="0.12" d="M264.979 -80.018V-197.457H262.107V-81.212L248.54 -67.589L248.54 -25.53L203.995 19.205V235.17L149.674 289.725L151.705 291.764L206.867 236.364V20.4L251.412 -24.336L251.412 -66.394L264.979 -80.018Z" fill="#303030"/>
<path opacity="0.12" d="M147.062 286.719C144.954 288.838 144.954 292.27 147.062 294.389C149.17 296.504 152.588 296.504 154.696 294.389C156.806 292.27 156.806 288.838 154.696 286.719C152.588 284.604 149.17 284.604 147.062 286.719Z" fill="#303030"/>
<path opacity="0.12" d="M372.759 448.217L372.759 2.75204L278.468 -91.942V-164.106L301.716 -187.456L299.686 -189.495L275.597 -165.301V-90.747L369.884 3.94705L369.884 447.021L282.845 534.437V679.001H285.717V535.631L372.759 448.217Z" fill="#303030"/>
<path opacity="0.12" d="M278.885 678.729C278.885 681.725 281.303 684.152 284.284 684.152C287.265 684.152 289.683 681.725 289.683 678.729C289.683 675.736 287.265 673.309 284.284 673.309C281.303 673.309 278.885 675.736 278.885 678.729Z" fill="#303030"/>
<path opacity="0.12" d="M372.338 94.865L370.307 92.826L318.685 144.67V385.318L256.218 448.051V637.862H259.09V449.245L321.557 386.512V145.865L372.338 94.865Z" fill="#303030"/>
<path opacity="0.12" d="M263.049 637.593C263.049 640.587 260.633 643.016 257.65 643.016C254.669 643.016 252.251 640.587 252.251 637.593C252.251 634.6 254.669 632.171 257.65 632.171C260.633 632.171 263.049 634.6 263.049 637.593Z" fill="#303030"/>
<path opacity="0.12" d="M319.51 75.934L319.51 -50.129H316.636L316.636 74.739L260.316 131.3L260.316 346.237L178.905 428L178.905 734.537H181.777L181.777 429.194L263.188 347.433L263.188 132.495L319.51 75.934Z" fill="#303030"/>
<path opacity="0.12" d="M294.93 58.453V-74.808H292.058V57.259L242.391 107.136V300.55H245.263V108.331L294.93 58.453Z" fill="#303030"/>
<path opacity="0.12" d="M249.225 300.278C249.225 303.272 246.807 305.698 243.826 305.698C240.845 305.698 238.427 303.272 238.427 300.278C238.427 297.284 240.845 294.856 243.826 294.856C246.807 294.856 249.225 297.284 249.225 300.278Z" fill="#303030"/>
<path opacity="0.12" d="M206.927 85.128L204.896 83.089L144.086 144.16V250.596L107.481 287.36L107.481 589.531H110.353L110.353 288.554L146.958 251.79V145.354L206.927 85.128Z" fill="#303030"/>
<path opacity="0.12" d="M114.313 589.26C114.313 592.254 111.895 594.68 108.914 594.68C105.933 594.68 103.515 592.254 103.515 589.26C103.515 586.264 105.933 583.838 108.914 583.838C111.895 583.838 114.313 586.264 114.313 589.26Z" fill="#303030"/>
<path opacity="0.12" d="M206.316 149.5L204.286 147.461L178.905 172.952V213.134H181.777V174.147L206.316 149.5Z" fill="#303030"/>
<path opacity="0.12" d="M185.74 212.865C185.74 215.86 183.322 218.289 180.341 218.289C177.36 218.289 174.941 215.86 174.941 212.865C174.941 209.873 177.36 207.444 180.341 207.444C183.322 207.444 185.74 209.873 185.74 212.865Z" fill="#303030"/>
<path opacity="0.12" d="M225.299 385.078V324.642L200.342 299.579L198.313 301.617L222.427 325.836V385.078H225.299Z" fill="#303030"/>
<path opacity="0.12" d="M195.7 304.625C193.592 302.506 193.592 299.072 195.7 296.957C197.808 294.84 201.228 294.84 203.336 296.957C205.443 299.072 205.443 302.506 203.336 304.625C201.228 306.74 197.808 306.74 195.7 304.625Z" fill="#303030"/>
<path opacity="0.12" d="M286.739 378.282V252.652L263.178 228.996L261.147 231.034L283.867 253.846V377.088L206.041 455.247V568.962H208.913V456.441L286.739 378.282Z" fill="#303030"/>
<path opacity="0.12" d="M212.875 568.692C212.875 571.684 210.457 574.112 207.476 574.112C204.495 574.112 202.076 571.684 202.076 568.692C202.076 565.696 204.495 563.27 207.476 563.27C210.457 563.27 212.875 565.696 212.875 568.692Z" fill="#303030"/>
<path opacity="0.12" d="M352.277 433.816V222.828L321.165 191.584L319.135 193.624L349.405 224.022V432.622L295.592 486.663L297.623 488.701L352.277 433.816Z" fill="#303030"/>
<path opacity="0.12" d="M300.615 491.325C298.507 493.442 295.088 493.442 292.982 491.325C290.872 489.208 290.872 485.774 292.982 483.657C295.09 481.54 298.507 481.542 300.615 483.657C302.723 485.776 302.723 489.208 300.615 491.325Z" fill="#303030"/>
<path opacity="0.12" d="M143.379 519.598V358.58L110.187 325.246L108.158 327.286L140.507 359.774V519.598H143.379Z" fill="#303030"/>
<path opacity="0.12" d="M147.341 519.328C147.341 522.323 144.923 524.75 141.942 524.75C138.961 524.75 136.542 522.323 136.542 519.328C136.542 516.334 138.961 513.907 141.942 513.907C144.923 513.907 147.341 516.334 147.341 519.328Z" fill="#303030"/>
<path opacity="0.12" d="M180.845 537.082L178.814 535.043L155.866 558.09V682.085H158.738V559.284L180.845 537.082Z" fill="#303030"/>
<path opacity="0.12" d="M162.703 681.816C162.703 684.81 160.285 687.238 157.304 687.238C154.323 687.238 151.905 684.81 151.905 681.816C151.905 678.822 154.323 676.394 157.304 676.394C160.285 676.394 162.703 678.822 162.703 681.816Z" fill="#303030"/>
<path opacity="0.12" d="M353.813 80.817V-15.421H350.941V79.623L282.203 148.654V201.561H285.075V149.847L353.813 80.817Z" fill="#303030"/>
<path opacity="0.12" d="M289.034 201.293C289.034 204.285 286.618 206.713 283.637 206.713C280.654 206.713 278.238 204.285 278.238 201.293C278.238 198.297 280.654 195.869 283.637 195.869C286.618 195.869 289.034 198.297 289.034 201.293Z" fill="#303030"/>
<path opacity="0.12" d="M264.514 721.399L237.074 693.84V512.324L208.495 483.622L206.464 485.66L234.202 513.518V695.034L262.485 723.437L264.514 721.399Z" fill="#303030"/>
<path opacity="0.12" d="M251.416 -131.291V-181.303L225.829 -207L223.799 -204.96L248.544 -180.108V-132.486L151.772 -35.298V35.661L76.5075 111.251V211.077H79.3794V112.446L154.644 36.856V-34.104L251.416 -131.291Z" fill="#303030"/>
<path opacity="0.12" d="M72.5405 210.807C72.5405 213.803 74.9587 216.229 77.9397 216.229C80.9207 216.229 83.3389 213.803 83.3389 210.807C83.3389 207.813 80.9207 205.386 77.9397 205.386C74.9587 205.386 72.5405 207.813 72.5405 210.807Z" fill="#303030"/>
<path opacity="0.12" d="M225.811 -57.763V-106.18H222.939V-58.957L180.44 -16.28V25.961H183.312V-15.086L225.811 -57.763Z" fill="#303030"/>
<path opacity="0.12" d="M187.275 25.69C187.275 28.684 184.857 31.113 181.876 31.113C178.895 31.113 176.477 28.684 176.477 25.69C176.477 22.697 178.895 20.268 181.876 20.268C184.857 20.268 187.275 22.697 187.275 25.69Z" fill="#303030"/>
<path opacity="0.12" d="M124.946 174.145L124.946 66.078H122.074L122.074 172.951L99.8019 195.319V256.765L89.8977 266.716L91.9271 268.756L102.674 257.959V196.513L124.946 174.145Z" fill="#303030"/>
<path opacity="0.12" d="M94.9192 271.378C92.8113 273.493 89.3918 273.493 87.2838 271.378C85.1739 269.261 85.1739 265.827 87.2838 263.71C89.3899 261.593 92.8093 261.593 94.9173 263.71C97.0253 265.825 97.0253 269.259 94.9192 271.378Z" fill="#303030"/>
<path opacity="0.12" d="M179.215 112.356V77.308L162.963 60.991L160.934 63.03L176.343 78.502V112.356H179.215Z" fill="#303030"/>
<path opacity="0.12" d="M158.324 66.035C156.216 63.918 156.214 60.485 158.322 58.368C160.432 56.251 163.849 56.25 165.957 58.367C168.065 60.484 168.067 63.917 165.959 66.035C163.851 68.152 160.432 68.153 158.324 66.035Z" fill="#303030"/>
<path opacity="0.12" d="M102.08 629.487L84.2382 611.566L84.2382 412.824L56.846 385.319L56.846 267.728L101.996 222.389L99.9647 220.351L53.9741 266.534L53.9741 386.513L81.3663 414.019L81.3663 612.76L100.049 631.527L102.08 629.487Z" fill="#303030"/>
<path opacity="0.12" d="M104.693 626.483C106.801 628.6 106.801 632.032 104.693 634.151C102.583 636.266 99.1633 636.266 97.0573 634.149C94.9493 632.032 94.9493 628.598 97.0573 626.483C99.1652 624.364 102.585 624.366 104.693 626.483Z" fill="#303030"/>
<path opacity="0.12" d="M185.925 377.657L175.119 366.806V267.648H172.247V368L183.894 379.697L185.925 377.657Z" fill="#303030"/>
<path opacity="0.12" d="M188.538 374.651C190.646 376.767 190.646 380.203 188.538 382.318C186.43 384.437 183.01 384.437 180.903 382.318C178.795 380.203 178.795 376.767 180.903 374.651C183.01 372.533 186.43 372.533 188.538 374.651Z" fill="#303030"/>
<path opacity="0.12" d="M271.31 48.37V-35.265L251.074 -55.589L249.043 -53.549L268.438 -34.071V47.176L225.819 89.977V206.245H228.691V91.171L271.31 48.37Z" fill="#303030"/>
<path opacity="0.12" d="M232.653 205.974C232.653 208.968 230.236 211.396 227.253 211.396C224.272 211.396 221.856 208.968 221.856 205.974C221.856 202.98 224.272 200.552 227.253 200.552C230.236 200.552 232.653 202.98 232.653 205.974Z" fill="#303030"/>
<path opacity="0.12" d="M233.251 44.52V-6.55603H230.38V44.52H233.251Z" fill="#303030"/>
<path opacity="0.12" d="M237.214 44.246C237.214 47.24 234.796 49.668 231.815 49.668C228.834 49.668 226.416 47.24 226.416 44.246C226.416 41.252 228.834 38.824 231.815 38.824C234.796 38.824 237.214 41.252 237.214 44.246Z" fill="#303030"/>
<path opacity="0.12" d="M303.283 370.082V288.298L285.956 270.896L283.924 272.934L300.411 289.492V370.082H303.283Z" fill="#303030"/>
<path opacity="0.12" d="M307.248 369.807C307.248 372.803 304.829 375.232 301.848 375.232C298.867 375.232 296.451 372.803 296.451 369.807C296.451 366.815 298.867 364.387 301.848 364.387C304.829 364.387 307.248 366.815 307.248 369.807Z" fill="#303030"/>
<path opacity="0.12" d="M83.5359 382.714V325.357L56.5075 298.219L54.478 300.257L80.664 326.551V382.714H83.5359Z" fill="#303030"/>
<path opacity="0.12" d="M87.499 382.445C87.499 385.439 85.0809 387.868 82.0999 387.868C79.1188 387.868 76.7007 385.439 76.7007 382.445C76.7007 379.452 79.1188 377.023 82.0999 377.023C85.0809 377.023 87.499 379.452 87.499 382.445Z" fill="#303030"/>
<path opacity="0.12" d="M304.544 437.317V403.658H301.672V436.123L273.154 464.761V514.538H276.026V465.955L304.544 437.317Z" fill="#303030"/>
<path opacity="0.12" d="M279.99 514.268C279.99 517.262 277.572 519.688 274.591 519.688C271.61 519.688 269.191 517.262 269.191 514.268C269.191 511.274 271.61 508.846 274.591 508.846C277.572 508.846 279.99 511.274 279.99 514.268Z" fill="#303030"/>
<path opacity="0.12" d="M160.909 498.743V426.856L143.345 409.218L141.315 411.258L158.038 428.05V498.743H160.909Z" fill="#303030"/>
<path opacity="0.12" d="M164.871 498.473C164.871 501.467 162.453 503.895 159.472 503.895C156.491 503.895 154.073 501.467 154.073 498.473C154.073 495.479 156.491 493.051 159.472 493.051C162.453 493.051 164.871 495.479 164.871 498.473Z" fill="#303030"/>
<path opacity="0.12" d="M453 497.121L453 134.57L372.899 54.126L370.868 56.166L450.128 135.764L450.128 495.927L394.352 551.944V741.398L414.84 761.972L416.872 759.934L397.224 740.204V553.138L453 497.121Z" fill="#303030"/>
<path opacity="0.12" d="M403.097 511.438V343.465L372.588 312.823L370.556 314.863L400.225 344.659V510.244L339.479 571.251L341.51 573.289L403.097 511.438Z" fill="#303030"/>
<path opacity="0.12" d="M344.502 575.916C342.393 578.031 338.974 578.031 336.867 575.916C334.758 573.797 334.758 570.363 336.867 568.246C338.974 566.131 342.393 566.131 344.502 568.246C346.61 570.363 346.61 573.797 344.502 575.916Z" fill="#303030"/>
<path opacity="0.12" d="M345.851 532.289V474.835H342.979V531.094L311.842 562.367V623.831H314.714V563.561L345.851 532.289Z" fill="#303030"/>
<path opacity="0.12" d="M318.675 623.559C318.675 626.554 316.258 628.981 313.277 628.981C310.294 628.981 307.878 626.554 307.878 623.559C307.878 620.565 310.294 618.138 313.277 618.138C316.258 618.138 318.675 620.565 318.675 623.559Z" fill="#303030"/>
<path opacity="0.12" d="M397.014 609.155L394.983 607.115L357.763 644.492V682.582H360.635V645.686L397.014 609.155Z" fill="#303030"/>
<path opacity="0.12" d="M364.598 682.311C364.598 685.306 362.18 687.735 359.199 687.735C356.218 687.735 353.799 685.306 353.799 682.311C353.799 679.319 356.218 676.89 359.199 676.89C362.18 676.89 364.598 679.319 364.598 682.311Z" fill="#303030"/>
<path opacity="0.12" d="M430.083 260.642L409.39 239.858V92.207H406.518V241.052L428.054 262.68L430.083 260.642Z" fill="#303030"/>
<path opacity="0.12" d="M432.695 257.636C434.803 259.755 434.803 263.187 432.695 265.306C430.587 267.421 427.168 267.421 425.06 265.306C422.951 263.187 422.951 259.755 425.06 257.636C427.168 255.521 430.587 255.521 432.695 257.636Z" fill="#303030"/>
<path opacity="0.12" d="M425.74 422.935V308.089L372.477 254.598L370.448 256.638L422.868 309.283V422.935H425.74Z" fill="#303030"/>
<path opacity="0.12" d="M429.705 422.666C429.705 425.658 427.287 428.086 424.306 428.086C421.325 428.086 418.907 425.658 418.907 422.666C418.907 419.67 421.325 417.242 424.306 417.242C427.287 417.242 429.705 419.67 429.705 422.666Z" fill="#303030"/>
<path opacity="0.12" d="M83.5867 459.587L81.5572 457.547L37.4717 501.824L37.4717 687.981L4.19213 721.401L6.22354 723.439L40.3436 689.175L40.3436 503.02L83.5867 459.587Z" fill="#303030"/>
<path opacity="0.12" d="M189.016 421.921C188.957 420.609 188.896 419.308 188.834 418.023L178.903 427.999L178.903 535.133L180.845 537.081L178.903 539.03V718.908C179.449 720.396 180.008 721.169 180.578 721.169C180.982 721.169 181.383 720.781 181.775 720.023L181.775 429.193L189.016 421.921Z" fill="#303030"/>
<path opacity="0.12" d="M180.845 537.082L178.904 535.134L178.814 535.043L169.896 544C169.9 545.359 169.904 546.713 169.907 548.067L178.904 539.031L180.845 537.082Z" fill="#303030"/>
<path opacity="0.12" d="M186.674 383.54C186.363 379.791 186.04 376.322 185.705 373.153C184.495 372.928 183.22 373.12 182.115 373.734C181.845 376.86 181.556 379.833 181.248 382.636C182.787 383.938 184.88 384.238 186.674 383.54Z" fill="#303030"/>
<path opacity="0.12" d="M212.724 14.518C212.642 13.22 212.56 11.941 212.477 10.687L203.994 19.207V83.995L204.894 83.091L206.866 85.071V20.401L212.724 14.518ZM206.866 236.365V85.189L203.994 88.073V147.755L204.285 147.463L206.314 149.502L203.994 151.833V235.171L196.194 243.005C196.238 244.328 196.282 245.645 196.328 246.948L206.866 236.365Z" fill="#303030"/>
<path opacity="0.12" d="M206.927 85.128L206.868 85.069L204.896 83.089L203.996 83.993L195.309 92.717C195.283 94.096 195.258 95.478 195.235 96.871L203.996 88.072L206.868 85.187L206.927 85.128Z" fill="#303030"/>
<path opacity="0.12" d="M206.316 149.5L204.286 147.461L203.995 147.753L194.782 157.006C194.784 158.369 194.788 159.719 194.792 161.075L203.995 151.832L206.316 149.5Z" fill="#303030"/>
<path opacity="0.12" d="M210.917 310.198L204.216 303.468C203.982 303.882 203.689 304.272 203.337 304.626C202.985 304.978 202.598 305.272 202.186 305.506L210.54 313.897C210.668 312.705 210.793 311.477 210.917 310.198Z" fill="#303030"/>
<path opacity="0.12" d="M204.919 300.789C204.919 299.402 204.39 298.014 203.337 296.957C202.097 295.711 200.404 295.199 198.79 295.418C199.066 299.251 199.355 302.86 199.652 306.209C200.529 306.188 201.402 305.953 202.187 305.505C202.598 305.271 202.985 304.977 203.337 304.625C203.69 304.271 203.982 303.881 204.216 303.467C204.683 302.639 204.919 301.714 204.919 300.789Z" fill="#303030"/>
<path opacity="0.12" d="M182.526 260.812C182.428 259.53 182.329 258.271 182.227 257.034L163.893 275.447C163.822 276.856 163.757 278.281 163.694 279.725L172.25 271.13V267.648H175.122V268.246L182.526 260.812Z" fill="#303030"/>
<path opacity="0.12" d="M176.063 367.754L175.118 366.806V267.648H172.246V271.13V368L175.637 371.406C175.778 370.135 175.92 368.92 176.063 367.754Z" fill="#303030"/>
<path opacity="0.12" d="M270.527 125.123C270.473 123.802 270.419 122.504 270.364 121.209L260.314 131.3V329.508C261.258 333.494 262.15 339.649 262.977 347.642L263.186 347.432V233.082L261.147 231.034L263.178 228.996L263.186 229.003V132.495L270.527 125.123Z" fill="#303030"/>
<path opacity="0.12" d="M268.332 85.166C268.236 83.877 268.138 82.612 268.041 81.379L254.545 94.933C254.455 96.353 254.367 97.804 254.281 99.276L268.332 85.166Z" fill="#303030"/>
<path opacity="0.12" d="M272.46 238.312L263.187 229.004L263.18 228.996L261.148 231.034L263.187 233.082L272.448 242.379C272.452 241.025 272.456 239.675 272.46 238.312ZM266.911 394.118L266.172 394.86C266.23 396.148 266.289 397.45 266.344 398.765L266.396 398.715C266.57 397.262 266.743 395.727 266.911 394.118Z" fill="#303030"/>
<path opacity="0.12" d="M264.982 54.723C264.752 53.464 264.516 52.339 264.279 51.35L258.074 57.583C257.846 59.038 257.62 60.626 257.4 62.337L264.982 54.723Z" fill="#303030"/>
<path opacity="0.12" d="M372.759 394.389V317.075L370.554 314.864L372.586 312.824L372.759 312.997V258.955L370.45 256.638L372.479 254.598L372.759 254.876V58.061L370.869 56.165L372.759 54.267V26.759C372.307 25.755 371.848 25.236 371.38 25.236C370.872 25.236 370.375 25.849 369.884 27.033V93.25L370.306 92.827L372.337 94.866L369.884 97.328V394.114C370.375 395.298 370.872 395.909 371.38 395.909C371.848 395.909 372.307 395.392 372.759 394.389Z" fill="#303030"/>
<path opacity="0.12" d="M372.338 94.865L370.307 92.826L369.885 93.249L362.782 100.384C362.721 101.788 362.662 103.207 362.605 104.64L369.885 97.328L372.338 94.865Z" fill="#303030"/>
<path opacity="0.12" d="M377.865 63.192C377.751 61.679 377.633 60.198 377.515 58.763L372.898 54.126L372.757 54.269L370.867 56.166L372.757 58.063L377.865 63.192Z" fill="#303030"/>
<path opacity="0.12" d="M380 320.272L372.756 312.996L372.584 312.823L370.552 314.863L372.756 317.075L379.829 324.179C379.886 322.893 379.944 321.585 380 320.272Z" fill="#303030"/>
<path opacity="0.12" d="M381.628 263.786L372.76 254.877L372.48 254.598L370.451 256.638L372.76 258.955L381.557 267.793C381.582 266.462 381.605 265.13 381.628 263.786Z" fill="#303030"/>
<path opacity="0.12" d="M359.232 457.719L342.793 474.228C342.855 475.355 342.916 476.463 342.977 477.562V474.834H345.849V475.238L359.044 461.986C359.109 460.578 359.171 459.157 359.232 457.719Z" fill="#303030"/>
<path opacity="0.12" d="M352.277 433.817V222.829L343.24 213.751C343.164 215.018 343.087 216.297 343.012 217.603L349.405 224.023V432.623L341.362 440.701C341.406 442.027 341.452 443.337 341.497 444.642L352.277 433.817Z" fill="#303030"/>
<path opacity="0.12" d="M345.851 513.818V474.835H342.979V477.564C343.81 492.242 344.779 504.548 345.851 513.818Z" fill="#303030"/>
<path opacity="0.12" d="M453 449.309V134.57L444.712 126.247C444.63 127.505 444.549 128.78 444.469 130.081L450.128 135.764V448.247C450.67 449.716 451.227 450.478 451.792 450.478C452.202 450.478 452.604 450.082 453 449.309Z" fill="#303030"/>
<path opacity="0.12" d="M267.7 440.599C267.669 439.266 267.638 437.934 267.604 436.617L256.218 448.053V632.367C256.675 632.24 257.156 632.173 257.652 632.173C258.15 632.173 258.632 632.242 259.09 632.367V449.248L267.7 440.599Z" fill="#303030"/>
<path opacity="0.12" d="M263.049 637.593C263.049 635.1 261.372 632.998 259.088 632.365C258.63 632.24 258.148 632.171 257.65 632.171C257.154 632.171 256.673 632.238 256.216 632.365C253.93 632.998 252.251 635.1 252.251 637.593C252.251 640.587 254.669 643.016 257.65 643.016C260.633 643.016 263.049 640.587 263.049 637.593Z" fill="#303030"/>
<path opacity="0.12" d="M253.884 356.773C253.817 355.497 253.75 354.203 253.684 352.895L251.892 354.695C251.766 356.133 251.642 357.619 251.521 359.148L253.884 356.773Z" fill="#303030"/>
<path opacity="0.12" d="M258.289 406.855C258.107 405.761 257.925 404.581 257.747 403.323L248.66 412.447C248.611 413.839 248.563 415.254 248.515 416.671L258.289 406.855Z" fill="#303030"/>
<path opacity="0.12" d="M330.038 137.351C330.006 136.02 329.975 134.684 329.941 133.369L318.687 144.672V385.32L317.457 386.552C317.745 387.823 318.034 388.894 318.329 389.758L321.559 386.514V196.057L319.137 193.626L321.166 191.586L321.559 191.98V145.867L330.038 137.351Z" fill="#303030"/>
<path opacity="0.12" d="M319.51 75.933V21.987C318.508 22.971 317.545 26.336 316.636 31.766V74.738L312.391 79.001C312.314 80.416 312.236 81.855 312.161 83.311L319.51 75.933Z" fill="#303030"/>
<path opacity="0.12" d="M330.818 205.356C330.815 203.991 330.814 202.631 330.812 201.272L321.557 191.978L321.164 191.584L319.135 193.624L321.557 196.055L330.818 205.356Z" fill="#303030"/>
<path opacity="0.12" d="M329.077 105.659C329.027 104.336 328.978 103.033 328.925 101.734L310.678 120.06C310.634 121.452 310.592 122.851 310.551 124.264L329.077 105.659Z" fill="#303030"/>
<path opacity="0.12" d="M405.693 544.632C405.662 543.292 405.631 541.971 405.599 540.646L394.353 551.943V607.746L394.981 607.113L397.012 609.153L394.353 611.824V741.397L402.867 749.948C402.95 748.691 403.028 747.41 403.107 746.11L397.224 740.203V553.137L405.693 544.632Z" fill="#303030"/>
<path opacity="0.12" d="M403.097 511.44V477.651C402.256 463.818 401.287 452.324 400.225 443.771V510.246L386.308 524.223C386.264 525.611 386.221 527.02 386.179 528.43L403.097 511.44Z" fill="#303030"/>
<path opacity="0.12" d="M397.014 609.155L394.983 607.115L394.355 607.747L385.038 617.101C385.04 618.461 385.044 619.818 385.048 621.17L394.355 611.825L397.014 609.155Z" fill="#303030"/>
<path opacity="0.12" d="M88.4153 615.759L84.2415 611.567L84.2415 412.825L72.4801 401.016C72.4552 402.346 72.4303 403.675 72.4054 405.019L81.3696 414.02V457.738L81.5591 457.548L83.5886 459.588L81.3696 461.816L81.3696 612.761L88.0668 619.489C88.1836 618.286 88.3004 617.036 88.4153 615.759Z" fill="#303030"/>
<path opacity="0.12" d="M83.5359 377.216V325.357L75.7741 317.562C75.686 318.813 75.6018 320.086 75.5175 321.382L80.664 326.551V377.216C81.1216 377.089 81.6021 377.022 82.0999 377.022C82.5977 377.022 83.0783 377.089 83.5359 377.216Z" fill="#303030"/>
<path opacity="0.12" d="M87.499 382.445C87.499 379.952 85.8199 377.85 83.5358 377.217C83.0782 377.09 82.5977 377.023 82.0999 377.023C81.6021 377.023 81.1215 377.09 80.6639 377.217C78.3798 377.85 76.7007 379.952 76.7007 382.445C76.7007 385.439 79.1188 387.868 82.0999 387.868C85.0809 387.868 87.499 385.439 87.499 382.445Z" fill="#303030"/>
<path opacity="0.12" d="M83.5867 459.587L81.5572 457.547L81.3676 457.738L71.9344 467.211C71.9382 468.573 71.9421 469.924 71.9459 471.278L81.3676 461.816L83.5867 459.587Z" fill="#303030"/>
<path opacity="0.12" d="M48.5928 494.734C48.5526 493.405 48.5104 492.088 48.4683 490.78L37.4728 501.823L37.4728 687.98L30.6836 694.796C30.743 696.11 30.8023 697.411 30.8636 698.694L40.3447 689.174L40.3447 503.019L48.5928 494.734Z" fill="#303030"/>
<path opacity="0.12" d="M118.152 280.721C118.106 279.398 118.058 278.087 118.01 276.785L107.48 287.36L107.48 560.299C107.978 561.533 108.487 562.172 109.006 562.172C109.461 562.172 109.911 561.68 110.352 560.72L110.352 329.493L108.156 327.287L110.185 325.247L110.352 325.414V288.554L118.152 280.721Z" fill="#303030"/>
<path opacity="0.12" d="M119.475 338.652C119.458 337.271 119.44 335.891 119.421 334.522L110.354 325.414L110.187 325.246L108.158 327.286L110.354 329.492L119.475 338.652Z" fill="#303030"/>
<path opacity="0.12" d="M102.672 257.96V227.48C101.941 236.819 101.278 247.731 100.706 259.935L102.672 257.96Z" fill="#303030"/>
</g>
</g>
<defs>
<clipPath id="clip0">
<rect width="833" height="453" fill="white" transform="translate(0 767) rotate(-90)"/>
</clipPath>
</defs>
</svg>
