<svg width="32" height="39" viewBox="0 0 32 39" fill="none" xmlns="http://www.w3.org/2000/svg">
<path d="M24.0012 13.0025C26.1226 13.0025 28.1571 12.3176 29.6572 11.0984C31.1573 9.87914 32 8.22551 32 6.50127C32 4.77703 31.1573 3.1234 29.6572 1.90418C28.1571 0.684953 26.1226 0 24.0012 0L8.00352 0C5.88334 0 3.85 0.684552 2.3508 1.90306C0.851611 3.12157 0.00937397 4.77423 0.00937397 6.49746C0.00937397 8.22069 0.851611 9.87335 2.3508 11.0919C3.85 12.3104 5.88334 12.9949 8.00352 12.9949C5.88209 12.9949 3.84756 13.6799 2.34749 14.8991C0.847419 16.1183 0.00468814 17.7719 0.00468814 19.4962C0.00468814 21.2204 0.847419 22.8741 2.34749 24.0933C3.84756 25.3125 5.88209 25.9975 8.00352 25.9975C6.4215 25.9967 4.87473 26.3773 3.55882 27.091C2.2429 27.8047 1.21694 28.8196 0.610672 30.0073C0.00440407 31.1949 -0.154941 32.5021 0.152786 33.7633C0.460514 35.0246 1.22149 36.1834 2.33949 37.0931C3.45749 38.0029 4.8823 38.6227 6.43374 38.8743C7.98518 39.1259 9.59357 38.9979 11.0555 38.5066C12.5175 38.0152 13.7673 37.1825 14.647 36.1138C15.5267 35.0451 15.9967 33.7884 15.9977 32.5025V13.0025H24.0012ZM24.0012 13.0025C22.4201 13.0025 20.8745 13.3836 19.5599 14.0976C18.2452 14.8115 17.2206 15.8263 16.6155 17.0135C16.0105 18.2008 15.8522 19.5072 16.1606 20.7676C16.4691 22.028 17.2305 23.1857 18.3485 24.0944C19.4665 25.0031 20.8909 25.6219 22.4416 25.8726C23.9923 26.1233 25.5997 25.9946 27.0604 25.5029C28.5211 25.0111 29.7696 24.1783 30.6481 23.1098C31.5265 22.0413 31.9953 20.7851 31.9953 19.5C31.9951 17.7768 31.1527 16.1243 29.6536 14.9058C28.1545 13.6874 26.1213 13.0027 24.0012 13.0025Z" fill="#121925"/>
</svg>
