<svg width="32" height="32" viewBox="0 0 32 32" fill="none" xmlns="http://www.w3.org/2000/svg">
<g clip-path="url(#clip0)">
<path d="M19.6199 11.558L16.4169 14.538L13.4449 8.543L14.9829 5.095C15.3829 4.395 16.0069 4.403 16.3969 5.095L19.6199 11.558Z" fill="#334568"/>
<path d="M13.445 8.543L16.417 14.538L4.44702 25.673L13.445 8.543Z" fill="#121925"/>
<path d="M23.123 7.003C23.695 6.453 24.287 6.641 24.438 7.42L27.554 25.525L17.226 31.725C16.866 31.925 15.906 32.011 15.906 32.011C15.906 32.011 15.032 31.907 14.699 31.711L4.44702 25.673L23.123 7.003Z" fill="#425986"/>
<path d="M13.445 8.54326L4.448 25.6733L8.455 0.638262C8.603 -0.141738 9.047 -0.216738 9.443 0.471262L13.445 8.54326Z" fill="#334568"/>
</g>
<defs>
<clipPath id="clip0">
<rect width="32" height="32" fill="white"/>
</clipPath>
</defs>
</svg>
