<svg width="33" height="33" viewBox="0 0 33 33" fill="none" xmlns="http://www.w3.org/2000/svg">
<g clip-path="url(#clip0)">
<path d="M31.5316 14.8874L17.5638 2.66244C17.1771 2.3244 16.6529 2.13452 16.1063 2.13452C15.5597 2.13452 15.0355 2.3244 14.6488 2.66244L11.7446 5.2018L15.4245 8.42179C17.3574 7.85054 19.1874 9.46991 18.5238 11.1518L22.0709 14.2555C24.5159 13.518 26.4409 16.193 24.6045 17.7986C22.7124 19.4542 19.5895 17.6193 20.6045 15.4649L17.2938 12.5718V20.1874C19.101 20.9711 18.8838 22.803 17.9424 23.6249C17.4824 24.0271 16.8588 24.253 16.2085 24.253C15.5582 24.253 14.9345 24.0271 14.4745 23.6249C13.2196 22.5249 13.6838 20.693 15.2781 20.1249V12.4374C13.7924 11.9055 13.521 10.5162 13.9467 9.62491L10.3188 6.4468L0.73888 14.8305C0.352381 15.1688 0.135254 15.6275 0.135254 16.1058C0.135254 16.5841 0.352381 17.0429 0.73888 17.3811L14.711 29.6061C15.0975 29.9441 15.6216 30.1339 16.1681 30.1339C16.7146 30.1339 17.2387 29.9441 17.6252 29.6061L31.5316 17.438C31.9181 17.0997 32.1353 16.641 32.1353 16.1627C32.1353 15.6844 31.9181 15.2256 31.5316 14.8874V14.8874Z" fill="#121925"/>
</g>
<defs>
<clipPath id="clip0">
<rect width="32" height="32" fill="white" transform="translate(0.135254 0.134338)"/>
</clipPath>
</defs>
</svg>
