<svg width="32" height="32" viewBox="0 0 32 32" fill="none" xmlns="http://www.w3.org/2000/svg">
<path d="M31.4133 12.0354C30.8634 9.82833 29.8205 8.1641 27.5992 8.1641H24.735V11.5497C24.735 14.1782 22.5065 16.3924 19.9637 16.3924H12.3354C10.2497 16.3924 8.52121 18.178 8.52121 20.2708V27.542C8.52121 29.6134 10.3212 30.8276 12.3354 31.4204C14.7496 32.1276 17.0709 32.2561 19.9637 31.4204C21.8851 30.8633 23.7779 29.7419 23.7779 27.542V24.635H16.1567V23.6636H27.5992C29.8205 23.6636 30.6419 22.1136 31.4133 19.7923C32.2133 17.3995 32.1776 15.0996 31.4133 12.0354V12.0354ZM20.4423 26.5706C21.2351 26.5706 21.8779 27.2206 21.8779 28.0206C21.8779 28.8277 21.2351 29.4777 20.4423 29.4777C19.6566 29.4777 19.0066 28.8205 19.0066 28.0206C19.0137 27.2134 19.6566 26.5706 20.4423 26.5706ZM11.9854 15.4353H19.6137C21.7351 15.4353 23.4279 13.6853 23.4279 11.5568V4.27852C23.4279 2.20716 21.6851 0.657213 19.6137 0.307225C17.0567 -0.11419 14.2782 -0.0927615 11.9854 0.314367C8.75692 0.885776 8.17122 2.07859 8.17122 4.28566V7.1927H15.8067V8.1641H5.30703C3.08567 8.1641 1.14287 9.49977 0.535751 12.0354C-0.164227 14.9424 -0.192797 16.7567 0.535751 19.7923C1.07859 22.0493 2.37141 23.6636 4.59276 23.6636H7.21411V20.178C7.21411 17.6566 9.39261 15.4353 11.9854 15.4353ZM11.5068 5.24991C10.714 5.24991 10.0712 4.59993 10.0712 3.79996C10.0783 2.99285 10.714 2.34287 11.5068 2.34287C12.2925 2.34287 12.9425 2.99999 12.9425 3.79996C12.9425 4.59993 12.2997 5.24991 11.5068 5.24991V5.24991Z" fill="#121925"/>
</svg>
