<svg width="33" height="33" viewBox="0 0 33 33" fill="none" xmlns="http://www.w3.org/2000/svg">
<path d="M26.1645 10.7183C25.827 10.5898 25.4895 10.4684 25.152 10.3541C25.2082 10.0898 25.2582 9.82553 25.3082 9.56126C26.077 5.30434 25.5707 1.8831 23.8645 0.754586C22.2207 -0.323928 19.5395 0.797441 16.827 3.4973C16.5582 3.76157 16.2957 4.04012 16.0457 4.31868C15.877 4.13298 15.702 3.94727 15.527 3.76871C12.6832 0.883151 9.83323 -0.33107 8.12698 0.804584C6.48948 1.89024 6.00198 5.1115 6.68948 9.13985C6.75823 9.53983 6.83323 9.93267 6.92073 10.3326C6.52073 10.4612 6.12698 10.6041 5.75823 10.7541C2.42073 12.0754 0.0269775 14.161 0.0269775 16.318C0.0269775 18.5465 2.57698 20.7821 6.04573 22.1392C6.32698 22.2463 6.60823 22.3534 6.89573 22.4463C6.80198 22.8748 6.72073 23.2962 6.64573 23.7319C5.98948 27.696 6.50198 30.8387 8.13948 31.9172C9.82698 33.0314 12.6645 31.8886 15.427 29.1245C15.6457 28.9031 15.8645 28.6745 16.0832 28.4317C16.3582 28.7388 16.6457 29.0316 16.9332 29.3173C19.6082 31.9458 22.252 33.01 23.8832 31.9315C25.5707 30.8173 26.1207 27.4389 25.4082 23.3248C25.352 23.0105 25.2895 22.6891 25.2207 22.3606C25.4207 22.2963 25.6145 22.2249 25.8082 22.1534C29.4145 20.7892 32.027 18.5822 32.027 16.318C32.027 14.1539 29.5645 12.054 26.1645 10.7183V10.7183ZM17.7082 4.65438C20.0332 2.34022 22.202 1.43312 23.1895 2.08309C24.2457 2.77591 24.652 5.57576 23.9895 9.25413C23.9457 9.49698 23.902 9.73268 23.8457 9.96838C22.4582 9.61126 21.052 9.35413 19.6395 9.21128C18.827 7.88278 17.9395 6.61142 16.977 5.41862C17.2207 5.15435 17.4582 4.90436 17.7082 4.65438V4.65438ZM10.477 20.025C10.7957 20.6464 11.1207 21.2678 11.4645 21.8749C10.4895 21.7535 9.52073 21.5749 8.56448 21.3392C8.83948 20.3107 9.18323 19.2465 9.58323 18.1608C9.87073 18.7893 10.1645 19.4107 10.477 20.025V20.025ZM8.58323 11.4326C9.48323 11.204 10.4395 11.0183 11.4332 10.8755C11.102 11.4683 10.777 12.0754 10.4707 12.6897C10.1645 13.2968 9.86448 13.9182 9.58323 14.5467C9.18948 13.4825 8.85823 12.4397 8.58323 11.4326ZM10.2957 16.3538C10.7082 15.3681 11.1582 14.4039 11.6332 13.4539C12.1082 12.504 12.6207 11.5826 13.1582 10.6755C14.0957 10.5969 15.052 10.5541 16.027 10.5541C17.002 10.5541 17.9645 10.5969 18.8957 10.6755C19.427 11.5754 19.9332 12.4968 20.4145 13.4396C20.8957 14.3824 21.3457 15.3467 21.7707 16.3252C21.352 17.3108 20.902 18.2822 20.4207 19.2393C19.9457 20.1893 19.4395 21.1106 18.9082 22.0249C17.977 22.1034 17.0082 22.1392 16.027 22.1392C15.0457 22.1392 14.0957 22.1034 13.177 22.0392C12.6332 21.1321 12.1207 20.2035 11.6395 19.2536C11.1582 18.3036 10.7145 17.3394 10.2957 16.3538ZM21.5832 20.0107C21.902 19.3822 22.202 18.7465 22.4957 18.1037C22.8957 19.1393 23.2457 20.1893 23.552 21.2678C22.5832 21.5178 21.602 21.7106 20.6145 21.8392C20.952 21.2392 21.2707 20.625 21.5832 20.0107ZM22.4832 14.5467C22.1895 13.9182 21.8895 13.2896 21.577 12.6754C21.2707 12.0683 20.952 11.4683 20.6207 10.8755C21.627 11.0183 22.5895 11.2112 23.4895 11.4469C23.202 12.504 22.8645 13.5325 22.4832 14.5467V14.5467ZM16.0395 6.51142C16.6957 7.32566 17.3145 8.18276 17.8895 9.06843C16.652 9.00415 15.4082 9.00415 14.1707 9.06843C14.7832 8.14705 15.4145 7.28995 16.0395 6.51142ZM8.78948 2.13308C9.83948 1.43312 12.1707 2.43307 14.627 4.91865C14.7832 5.07578 14.9395 5.2472 15.102 5.41862C14.1332 6.61142 13.2395 7.88278 12.4207 9.21128C11.0082 9.35413 9.60823 9.60411 8.22073 9.95409C8.13948 9.58983 8.07073 9.21842 8.00198 8.84701C7.41448 5.39005 7.80198 2.78305 8.78948 2.13308V2.13308ZM7.25823 20.9607C6.99573 20.8749 6.73948 20.7821 6.48323 20.6821C5.15198 20.2035 3.63948 19.4464 2.54573 18.4536C1.91448 17.9537 1.48948 17.1823 1.37073 16.318C1.37073 15.011 3.34573 13.3396 6.19573 12.204C6.55198 12.0611 6.91448 11.9326 7.27698 11.8111C7.70198 13.3611 8.21448 14.8824 8.80823 16.3538C8.20823 17.8465 7.68948 19.3893 7.25823 20.9607V20.9607ZM14.5457 27.9603C13.5145 29.0388 12.3207 29.8959 11.0207 30.4816C10.327 30.8601 9.52698 30.8958 8.81448 30.5744C7.82073 29.9173 7.40823 27.396 7.97073 24.0033C8.03948 23.6034 8.11448 23.2034 8.20198 22.8106C9.60198 23.1534 11.0145 23.3891 12.4457 23.5105C13.2707 24.8462 14.177 26.1247 15.1457 27.3246C14.9457 27.546 14.7457 27.7603 14.5457 27.9603ZM16.077 26.2247C15.4395 25.439 14.802 24.5676 14.1832 23.6319C14.7832 23.6605 15.402 23.6748 16.027 23.6748C16.6707 23.6748 17.302 23.6605 17.927 23.6248C17.352 24.5319 16.7332 25.3961 16.077 26.2247V26.2247ZM24.2457 28.3674C24.1895 29.2388 23.8145 30.053 23.2145 30.603C22.2207 31.2601 20.102 30.403 17.8145 28.1603C17.552 27.9031 17.2895 27.6246 17.0207 27.3389C17.977 26.1318 18.8582 24.8533 19.6582 23.5105C21.0895 23.3748 22.5145 23.1248 23.9207 22.7606C23.9832 23.0534 24.0395 23.3462 24.0895 23.6319C24.3957 25.1747 24.4457 26.7818 24.2457 28.3674V28.3674ZM25.3832 20.6892C25.2082 20.7535 25.0332 20.8178 24.852 20.8749C24.4145 19.3179 23.877 17.7965 23.2582 16.318C23.8582 14.861 24.3645 13.3611 24.7895 11.8254C25.1145 11.9326 25.427 12.0468 25.727 12.1611C28.6395 13.3039 30.6832 15.0038 30.6832 16.3038C30.6832 17.7037 28.502 19.5107 25.3832 20.6892ZM16.027 19.6179C17.6082 19.6179 18.8895 18.1537 18.8895 16.3466C18.8895 14.5396 17.6082 13.0754 16.027 13.0754C14.4457 13.0754 13.1645 14.5396 13.1645 16.3466C13.1645 18.1537 14.4457 19.6179 16.027 19.6179Z" fill="#121925"/>
</svg>
