<svg width="32" height="32" viewBox="0 0 32 32" fill="none" xmlns="http://www.w3.org/2000/svg">
<path d="M22.1726 22.26C23.3535 22.1319 24.2494 21.0637 24.2087 19.7819C24.168 18.5002 23.1499 17.4748 21.9283 17.4748H21.8468C20.5845 17.5175 19.6072 18.6284 19.6479 19.9528C19.6886 20.5937 19.9329 21.1492 20.2994 21.5337C18.9149 24.3963 16.7974 26.4899 13.6211 28.2416C11.4629 29.4379 9.22323 29.8652 6.98356 29.5661C5.1511 29.3098 3.72585 28.4552 2.82998 27.0453C1.5269 24.9517 1.40473 22.6873 2.50421 20.4228C3.27792 18.7993 4.49956 17.6029 5.27326 17.0048C5.11038 16.4494 4.86605 15.5094 4.74388 14.8258C-1.16071 19.312 -0.549892 25.379 1.24185 28.2416C2.58565 30.3779 5.31398 31.7024 8.32736 31.7024C9.14179 31.7024 9.95622 31.6169 10.7706 31.4033C15.983 30.3352 19.9329 27.088 22.1726 22.26ZM29.3396 16.9621C26.2448 13.1595 21.684 11.0659 16.4716 11.0659H15.8201C15.4536 10.2969 14.6799 9.78416 13.8247 9.78416H13.7433C12.4809 9.82689 11.5036 10.9378 11.5443 12.2622C11.5851 13.544 12.6031 14.5694 13.8247 14.5694H13.9062C14.8021 14.5267 15.5758 13.9285 15.9015 13.1168H16.6345C19.7293 13.1168 22.6613 14.0567 25.3082 15.8939C27.3442 17.3039 28.8102 19.1411 29.6246 21.3628C30.3169 23.1573 30.2762 24.909 29.5432 26.4044C28.403 28.6689 26.4891 29.9079 23.9644 29.9079C22.3355 29.9079 20.7881 29.3952 19.9737 29.0107C19.5257 29.4379 18.7113 30.1215 18.1412 30.5488C19.8922 31.4033 21.684 31.8733 23.3943 31.8733C27.3035 31.8733 30.1947 29.6088 31.2942 27.3444C32.4751 24.8663 32.3937 20.5937 29.3396 16.9621ZM8.65313 22.9864C8.69385 24.2681 9.71189 25.2935 10.9335 25.2935H11.015C12.2773 25.2508 13.2546 24.14 13.2139 22.8155C13.1732 21.5337 12.1552 20.5083 10.9335 20.5083H10.8521C10.7706 20.5083 10.6485 20.5083 10.567 20.551C8.89746 17.6457 8.2052 14.484 8.44953 11.0659C8.61241 8.50239 9.42684 6.28066 10.8521 4.44346C12.033 2.86261 14.3134 2.09355 15.8608 2.05083C20.1773 1.96538 22.0097 7.60516 22.1319 9.86961C22.6613 9.99779 23.5571 10.2969 24.168 10.5105C23.6793 3.58895 19.6072 0 15.6979 0C12.033 0 8.65313 2.77716 7.30933 6.87882C5.43615 12.3477 6.65779 17.6029 8.93818 21.7473C8.73458 22.0464 8.61241 22.5164 8.65313 22.9864Z" fill="#121925"/>
</svg>
