<svg width="32" height="32" viewBox="0 0 32 32" fill="none" xmlns="http://www.w3.org/2000/svg">
<path d="M15.092 24.1924C15.077 24.2324 15.062 24.2644 15.092 24.1924V24.1924ZM27.5486 18.3929C26.543 18.3925 25.5507 18.7004 24.6486 19.2928C24.3536 18.4995 24.0486 17.8063 23.9986 17.2863C23.9386 16.6797 23.8736 16.3197 23.9436 15.5998C24.0136 14.8798 24.3286 13.8599 24.3236 13.7866C24.3186 13.7133 24.2536 13.3466 23.6086 13.34C22.9636 13.3333 22.4086 13.5066 22.3441 13.7333C22.2302 14.1475 22.1415 14.5733 22.0791 15.0065C21.9641 15.7864 20.7896 18.5729 20.1246 20.0261C19.9046 19.4595 19.7196 18.9595 19.6796 18.5595C19.6195 17.9529 19.5545 17.5929 19.6245 16.873C19.6946 16.1531 20.0096 15.1331 20.0046 15.0598C19.9996 14.9865 19.9346 14.6199 19.29 14.6132C18.6455 14.6065 18.09 14.7798 18.025 15.0065C17.96 15.2331 17.89 15.7664 17.76 16.2797C17.63 16.793 16.0655 21.4326 15.656 22.6392C15.446 23.2525 15.266 23.7458 15.136 24.0791C15.116 24.1324 15.101 24.1657 15.091 24.1924C15.106 24.1591 15.116 24.1257 15.116 24.1391C15.006 24.4257 14.941 24.5857 14.941 24.5857V24.5924C14.856 24.8057 14.761 24.999 14.716 24.999C14.686 24.999 14.621 24.4391 14.731 23.6725C14.966 22.0593 15.521 19.5528 15.516 19.4661C15.511 19.4195 15.621 18.9862 15.151 18.7529C14.696 18.5329 14.531 18.8995 14.491 18.8995C14.451 18.8995 14.421 19.0328 14.421 19.0328C14.421 19.0328 14.926 16.2064 13.4515 16.2064C12.5315 16.2064 11.2515 17.553 10.6224 18.7729C10.2274 19.0595 9.37243 19.6794 8.47242 20.3394C8.12742 20.5927 7.77241 20.8527 7.43741 21.0993C7.41241 21.066 7.39241 21.0327 7.36741 20.9993C5.57789 18.4529 2.27385 16.653 2.41385 13.2333C2.46385 11.9867 2.78885 8.71367 8.76742 4.74066C13.6675 1.4876 17.585 2.38086 18.2595 4.36736C19.2295 7.20046 16.165 12.4734 11.0765 13.2333C9.13693 13.5199 8.11742 12.52 7.86241 12.1467C7.59741 11.7534 7.55741 11.7334 7.45741 11.8068C7.29241 11.9267 7.39741 12.2734 7.45741 12.48C7.60741 13.0067 8.23242 13.9399 9.29693 14.4065C10.2319 14.8132 12.506 15.0398 15.2555 13.6199C18.3445 12.0334 20.7491 7.61376 20.0441 3.91406C19.326 0.154371 14.65 -1.07886 10.2284 1.0143C7.59391 2.26087 4.74488 4.22071 2.69535 6.77383C0.260825 9.81358 -0.12868 12.46 0.0313222 13.5666C0.600829 17.493 4.65988 20.0527 6.2844 21.9459C6.20439 22.0059 6.12939 22.0593 6.05939 22.1126C5.24488 22.6525 2.15035 24.8124 1.37584 27.0922C0.500828 29.6786 1.52084 31.5318 2.19035 31.7851C4.27987 32.5584 6.4194 31.1652 7.56891 28.8787C8.71842 26.5922 8.57892 23.6058 8.04891 22.2459C8.04391 22.2259 8.03392 22.2126 8.02892 22.1926C8.23892 22.0259 8.45392 21.8593 8.66892 21.6926C9.08343 21.366 9.48843 21.066 9.84344 20.806C9.64343 21.526 9.49843 22.3926 9.42343 23.6458C9.33343 25.1123 9.78844 27.0122 10.3784 27.7588C10.6384 28.0854 10.9529 28.0921 11.148 28.0921C11.838 28.0921 12.148 27.3322 12.4925 26.4256C12.9175 25.319 13.2925 24.0324 13.2925 24.0324C13.2925 24.0324 12.8225 27.5121 14.1075 27.5121C14.577 27.5121 15.047 26.7055 15.2575 26.2922V26.2989C15.2575 26.2989 15.2675 26.2722 15.2925 26.2189C15.3425 26.1189 15.3675 26.0589 15.3675 26.0589V26.0389C15.5575 25.6056 15.9725 24.6124 16.597 22.9725C17.407 20.8527 18.1815 18.2062 18.1815 18.2062C18.2564 18.788 18.3599 19.3625 18.4915 19.9261C18.6315 20.5594 18.9265 21.2527 19.1615 21.9259C18.9715 22.2726 18.8565 22.4726 18.8565 22.4726C18.8569 22.4777 18.8587 22.4824 18.8615 22.4859C18.7115 22.7525 18.5415 23.0392 18.3665 23.3191C17.727 24.3324 16.9665 25.4923 16.8665 25.8256C16.7465 26.2189 16.7765 26.5122 17.0065 26.7389C17.1765 26.9122 17.4765 26.9389 17.791 26.9055C18.366 26.8522 18.771 26.6655 18.966 26.5456C19.3255 26.3737 19.6653 26.1359 19.9756 25.8389C20.6006 25.2257 20.9806 24.3457 20.9456 23.1858C20.9256 22.5459 20.7706 21.9059 20.5806 21.306C20.6356 21.1993 20.6956 21.086 20.7506 20.9727C21.7401 19.0462 22.5051 16.9317 22.5051 16.9317C22.5799 17.5134 22.6835 18.088 22.8151 18.6515C22.9351 19.1915 23.1696 19.7848 23.3846 20.3647C22.4551 21.3713 21.8801 22.5379 21.6801 23.3045C21.3101 24.7244 21.6001 25.3643 22.1451 25.511C22.3901 25.5776 22.7401 25.4243 23.0001 25.2777C23.3862 25.1062 23.7503 24.8566 24.0796 24.5377C24.7046 23.9244 25.3091 23.0645 25.2691 21.8979C25.2541 21.3713 25.1441 20.8447 24.9991 20.3381C25.7841 19.8981 26.8036 19.6581 28.1037 19.8581C30.8877 20.2914 31.4327 22.6112 31.3277 23.5778C31.2227 24.5444 30.6377 25.0843 30.4427 25.2443C30.2477 25.4043 30.1877 25.4643 30.2027 25.5843C30.2277 25.7576 30.3177 25.751 30.4827 25.711C30.7127 25.6576 31.9422 24.9244 31.9972 23.1312C32.0772 20.8647 30.4427 18.3716 27.5471 18.3916L27.5486 18.3929ZM6.08939 28.0388C5.16988 29.3787 3.87987 29.8853 3.32536 29.4586C2.73035 28.9974 2.96536 27.0255 4.09987 25.5976C4.78988 24.731 5.67939 23.9311 6.26939 23.4378C6.4044 23.3311 6.5994 23.1712 6.8394 22.9778C6.8794 22.9445 6.8994 22.9312 6.8994 22.9312C6.9444 22.8912 6.9944 22.8579 7.0444 22.8179C7.45891 24.8444 7.0594 26.6309 6.08939 28.0374V28.0388ZM12.8075 21.9459C12.4875 22.9925 11.813 25.659 11.403 25.519C11.0529 25.399 10.8379 23.3658 11.333 21.366C11.583 20.3594 12.113 19.1595 12.428 18.6929C12.9325 17.9396 13.4875 17.6996 13.6175 17.9996C13.7925 18.3929 13.0075 21.2926 12.8075 21.9459ZM18.3575 25.479C18.2225 25.5723 18.0975 25.6323 18.0375 25.5856C17.9925 25.5523 18.0925 25.4256 18.0925 25.4256C18.0925 25.4256 18.7875 24.4324 19.0625 23.9791C19.2225 23.7125 19.4075 23.3991 19.6071 23.0525C19.6071 23.0858 19.612 23.1192 19.612 23.1592C19.6055 24.3524 18.746 25.159 18.356 25.479H18.3575ZM22.6366 24.1791C22.5366 24.0858 22.5516 23.7724 22.8866 22.7992C23.0166 22.4192 23.3161 21.7793 23.8366 21.166C23.8955 21.3981 23.9276 21.6409 23.9316 21.8859C23.9266 23.3858 23.1216 23.9458 22.6371 24.1791H22.6366Z" fill="#121925"/>
</svg>
