<svg width="47" height="59" viewBox="0 0 47 59" fill="none" xmlns="http://www.w3.org/2000/svg">
<path d="M35.2517 19.6705C38.3676 19.6705 41.3558 18.6343 43.559 16.7898C45.7622 14.9454 47 12.4437 47 9.83525C47 7.22678 45.7622 4.72515 43.559 2.88068C41.3558 1.03621 38.3676 0 35.2517 0L11.7552 0C8.64115 0 5.65468 1.0356 3.45274 2.87899C1.2508 4.72238 0.013768 7.22255 0.013768 9.82949C0.013768 12.4364 1.2508 14.9366 3.45274 16.78C5.65468 18.6234 8.64115 19.659 11.7552 19.659C8.63933 19.659 5.65111 20.6952 3.44788 22.5397C1.24465 24.3841 0.00688571 26.8858 0.00688571 29.4942C0.00688571 32.1027 1.24465 34.6043 3.44788 36.4488C5.65111 38.2933 8.63933 39.3295 11.7552 39.3295C9.43157 39.3284 7.15976 39.9041 5.22701 40.9838C3.29426 42.0636 1.78738 43.5989 0.896925 45.3956C0.00646847 47.1924 -0.22757 49.1698 0.224405 51.0779C0.676379 52.9859 1.79407 54.739 3.43613 56.1152C5.07819 57.4915 7.17088 58.4293 9.44956 58.8099C11.7282 59.1905 14.0906 58.9969 16.2378 58.2535C18.385 57.5102 20.2207 56.2505 21.5128 54.6337C22.8048 53.0169 23.4952 51.1157 23.4966 49.1705V19.6705H35.2517ZM35.2517 19.6705C32.9295 19.6705 30.6594 20.247 28.7286 21.3271C26.7977 22.4072 25.2928 23.9423 24.4041 25.7384C23.5154 27.5345 23.2829 29.5109 23.7359 31.4176C24.189 33.3244 25.3072 35.0758 26.9493 36.4505C28.5914 37.8252 30.6835 38.7613 32.9611 39.1406C35.2387 39.5199 37.5995 39.3252 39.745 38.5813C41.8904 37.8373 43.7242 36.5774 45.0143 34.961C46.3045 33.3445 46.9931 31.4441 46.9931 29.5C46.9928 26.8932 45.7556 24.3932 43.5537 22.5498C41.3519 20.7065 38.3656 19.6708 35.2517 19.6705Z" fill="#121212"/>
</svg>
