<svg width="52" height="52" viewBox="0 0 52 52" fill="none" xmlns="http://www.w3.org/2000/svg">
<path d="M8.66666 40.0833L25.1702 9.13901C25.5179 8.48684 26.4582 8.49876 26.7887 9.16068L32.5 20.5833L8.66666 40.0833Z" fill="#121212"/>
<path d="M8.66666 40.0747L14.6748 3.02576C14.8319 2.05617 16.1341 1.84601 16.5891 2.71701L28.1667 24.908L8.66666 40.0747Z" fill="#111111"/>
<path d="M8.67532 40.0682L8.89199 39.8981L27.8817 24.362L22.5257 14.0963L8.67532 40.0682Z" fill="black"/>
<path d="M8.66666 40.0833L37.5548 12.2276C38.1604 11.6437 39.1712 11.9882 39.2947 12.8202L43.3333 40.0833L27.0833 49.5549C26.4236 49.9254 25.6187 49.9254 24.9589 49.5549L8.66666 40.0833Z" fill="#333333"/>
</svg>
