<svg width="52" height="52" viewBox="0 0 52 52" fill="none" xmlns="http://www.w3.org/2000/svg">
<path d="M25.9884 52C25.2086 52 24.4172 51.8143 23.7305 51.4634L16.5497 47.6972C15.479 47.1606 16.0027 46.9749 16.3518 46.8717C17.7833 46.428 18.0743 46.3352 19.5989 45.5613C19.7619 45.4787 19.9714 45.5097 20.1343 45.6025L25.6509 48.502C25.8487 48.6052 26.128 48.6052 26.3142 48.502L47.8102 37.5025C48.0081 37.3993 48.1361 37.193 48.1361 36.9866V14.9876C48.1361 14.7709 48.0081 14.5749 47.7986 14.4614L26.3142 3.47217C26.1164 3.36898 25.8487 3.36898 25.6509 3.47217L4.17816 14.4717C3.96867 14.5749 3.84064 14.7812 3.84064 14.9979V36.9866C3.84064 37.193 3.96867 37.3993 4.17816 37.4922L10.0671 40.5052C13.2677 41.9188 15.2229 40.2576 15.2229 38.5757V16.8656C15.2229 16.556 15.5022 16.3187 15.8514 16.3187H18.5748C18.9123 16.3187 19.2032 16.556 19.2032 16.8656V38.586C19.2032 42.3625 16.8756 44.5294 12.8371 44.5294C11.5918 44.5294 10.6141 44.5294 7.89078 43.3325L2.25783 40.4536C0.861235 39.7416 0 38.4106 0 36.9763V14.9876C0 13.5636 0.861235 12.2222 2.25783 11.5103L23.7305 0.510765C25.0922 -0.170255 26.8962 -0.170255 28.2462 0.510765L49.7422 11.5206C51.1388 12.2326 52 13.5636 52 14.9979V36.9866C52 38.4106 51.1388 39.7416 49.7422 40.4639L28.2462 51.4634C27.5595 51.8143 26.7798 52 25.9884 52ZM43.3411 30.3209C43.3411 26.2038 40.1987 25.11 33.5998 24.3361C26.9194 23.5519 26.2444 23.1495 26.2444 21.7668C26.2444 20.6215 26.8147 19.0944 31.761 19.0944C36.1719 19.0944 37.8013 19.9405 38.4763 22.582C38.5345 22.8296 38.7905 23.0154 39.0815 23.0154H41.8747C42.0492 23.0154 42.2122 22.9535 42.3286 22.84C42.4449 22.7265 42.5031 22.5717 42.4915 22.4169C42.0609 17.8665 38.6509 15.7512 31.761 15.7512C25.6276 15.7512 21.9731 18.0419 21.9731 21.8907C21.9731 26.0593 25.6159 27.215 31.4933 27.7309C38.5345 28.3397 39.0815 29.2581 39.0815 30.486C39.0815 32.6116 37.1495 33.5196 32.6222 33.5196C26.9311 33.5196 25.6858 32.2504 25.2668 29.743C25.2202 29.4747 24.9642 29.2787 24.65 29.2787H21.8684C21.5192 29.2787 21.2516 29.5263 21.2516 29.8256C21.2516 33.0346 23.2184 36.8628 32.6338 36.8628C39.4306 36.8525 43.3411 34.4689 43.3411 30.3209V30.3209Z" fill="#121212"/>
</svg>
