<svg width="53" height="53" viewBox="0 0 53 53" fill="none" xmlns="http://www.w3.org/2000/svg">
<path d="M51.6091 20.12C50.7154 16.5335 49.0208 13.8291 45.4111 13.8291H40.7568V19.3307C40.7568 23.602 37.1355 27.2001 33.0035 27.2001H20.6074C17.2182 27.2001 14.4094 30.1018 14.4094 33.5025V45.3182C14.4094 48.6842 17.3343 50.6573 20.6074 51.6207C24.5305 52.7697 28.3027 52.9787 33.0035 51.6207C36.1257 50.7153 39.2015 48.8931 39.2015 45.3182V40.5943H26.817V39.0157H45.4111C49.0208 39.0157 50.3556 36.4971 51.6091 32.7249C52.9091 28.8366 52.851 25.0993 51.6091 20.12V20.12ZM33.7811 43.7397C35.0695 43.7397 36.1141 44.7959 36.1141 46.0959C36.1141 47.4074 35.0695 48.4636 33.7811 48.4636C32.5044 48.4636 31.4481 47.3958 31.4481 46.0959C31.4598 44.7843 32.5044 43.7397 33.7811 43.7397ZM20.0387 25.6448H32.4347C35.8819 25.6448 38.6327 22.8011 38.6327 19.3423V7.51503C38.6327 4.14907 35.8007 1.63041 32.4347 1.06168C28.2795 0.376881 23.7645 0.411701 20.0387 1.07329C14.7924 2.00183 13.8407 3.94015 13.8407 7.52664V12.2506H26.2483V13.8291H9.18636C5.57665 13.8291 2.41961 15.9996 1.43303 20.12C0.29557 24.8439 0.249143 27.792 1.43303 32.7249C2.31515 36.3926 4.41597 39.0157 8.02568 39.0157H12.2854V33.3516C12.2854 29.2545 15.8254 25.6448 20.0387 25.6448ZM19.261 9.09355C17.9727 9.09355 16.9281 8.03733 16.9281 6.73738C16.9397 5.42582 17.9727 4.3696 19.261 4.3696C20.5378 4.3696 21.594 5.43742 21.594 6.73738C21.594 8.03733 20.5494 9.09355 19.261 9.09355V9.09355Z" fill="#121212"/>
</svg>
