<svg width="52" height="52" viewBox="0 0 52 52" fill="none" xmlns="http://www.w3.org/2000/svg">
<path d="M42.4734 16.8512C41.925 16.6423 41.3766 16.445 40.8281 16.2593C40.9195 15.8298 41.0008 15.4004 41.082 14.971C42.3313 8.05347 41.5086 2.49395 38.7359 0.66012C36.0648 -1.09246 31.7078 0.729759 27.3 5.11702C26.8633 5.54647 26.4367 5.99912 26.0305 6.45178C25.7562 6.15001 25.4719 5.84824 25.1875 5.55807C20.5664 0.869038 15.9352 -1.10407 13.1625 0.741366C10.5016 2.50556 9.70937 7.7401 10.8266 14.2862C10.9383 14.9361 11.0602 15.5745 11.2023 16.2245C10.5523 16.4334 9.9125 16.6655 9.31328 16.9093C3.88984 19.0565 0 22.4456 0 25.9507C0 29.572 4.14375 33.2048 9.78047 35.41C10.2375 35.5841 10.6945 35.7582 11.1617 35.9091C11.0094 36.6055 10.8773 37.2903 10.7555 37.9983C9.68906 44.4399 10.5219 49.5468 13.1828 51.2994C15.925 53.11 20.5359 51.253 25.025 46.7612C25.3805 46.4014 25.7359 46.03 26.0914 45.6354C26.5383 46.1345 27.0055 46.6103 27.4727 47.0746C31.8195 51.3458 36.1156 53.0752 38.7664 51.3226C41.5086 49.512 42.4023 44.0221 41.2445 37.3367C41.1531 36.826 41.0516 36.3038 40.9398 35.7699C41.2648 35.6654 41.5797 35.5493 41.8945 35.4333C47.7547 33.2164 52 29.63 52 25.9507C52 22.434 47.9984 19.0216 42.4734 16.8512V16.8512ZM28.732 6.99728C32.5102 3.23677 36.0344 1.76274 37.6391 2.81893C39.3555 3.94477 40.0156 8.49452 38.9391 14.4719C38.868 14.8665 38.7969 15.2495 38.7055 15.6325C36.4508 15.0522 34.1656 14.6344 31.8703 14.4022C30.55 12.2434 29.1078 10.1775 27.5438 8.23918C27.9398 7.80974 28.3258 7.40351 28.732 6.99728V6.99728ZM16.9812 31.9745C17.4992 32.9843 18.0273 33.9941 18.5859 34.9806C17.0016 34.7833 15.4273 34.4931 13.8734 34.1101C14.3203 32.4388 14.8789 30.7094 15.5289 28.9452C15.9961 29.9666 16.4734 30.9764 16.9812 31.9745V31.9745ZM13.9039 18.0119C15.3664 17.6405 16.9203 17.3387 18.5352 17.1066C17.9969 18.0699 17.4688 19.0565 16.9711 20.0546C16.4734 21.0412 15.9859 22.0509 15.5289 23.0723C14.8891 21.3429 14.3508 19.6484 13.9039 18.0119ZM16.6867 26.0088C17.357 24.4071 18.0883 22.8402 18.8602 21.2965C19.632 19.7528 20.4648 18.2556 21.3383 16.7816C22.8617 16.6539 24.4156 16.5843 26 16.5843C27.5844 16.5843 29.1484 16.6539 30.6617 16.7816C31.525 18.244 32.3477 19.7412 33.1297 21.2733C33.9117 22.8054 34.643 24.3722 35.3336 25.9623C34.6531 27.564 33.9219 29.1425 33.1398 30.6978C32.368 32.2415 31.5453 33.7387 30.682 35.2243C29.1688 35.352 27.5945 35.41 26 35.41C24.4055 35.41 22.8617 35.352 21.3687 35.2476C20.4852 33.7735 19.6523 32.2647 18.8703 30.721C18.0883 29.1773 17.3672 27.6105 16.6867 26.0088ZM35.0289 31.9513C35.5469 30.9299 36.0344 29.897 36.5117 28.8524C37.1617 30.5353 37.7305 32.2415 38.2281 33.9941C36.6539 34.4003 35.0594 34.7137 33.4547 34.9226C34.0031 33.9476 34.5211 32.9495 35.0289 31.9513ZM36.4914 23.0723C36.0141 22.0509 35.5266 21.0296 35.0187 20.0314C34.5211 19.0449 34.0031 18.0699 33.4648 17.1066C35.1 17.3387 36.6641 17.6521 38.1266 18.0351C37.6594 19.7528 37.1109 21.4242 36.4914 23.0723V23.0723ZM26.0203 10.015C27.0867 11.3381 28.0922 12.7309 29.0266 14.1701C27.0156 14.0657 24.9945 14.0657 22.9836 14.1701C23.9789 12.6729 25.0047 11.2801 26.0203 10.015ZM14.2391 2.90018C15.9453 1.76274 19.7336 3.38765 23.725 7.42672C23.9789 7.68207 24.2328 7.96062 24.4969 8.23918C22.9227 10.1775 21.4703 12.2434 20.1398 14.4022C17.8445 14.6344 15.5695 15.0406 13.3148 15.6093C13.1828 15.0174 13.0711 14.4138 12.9594 13.8103C12.0047 8.19275 12.6344 3.95637 14.2391 2.90018V2.90018ZM11.7508 33.495C11.3242 33.3557 10.9078 33.2048 10.4914 33.0423C8.32813 32.2647 5.87031 31.0344 4.09297 29.4211C3.06719 28.6086 2.37656 27.3551 2.18359 25.9507C2.18359 23.8267 5.39297 21.1108 10.0242 19.2654C10.6031 19.0332 11.1922 18.8243 11.7812 18.627C12.4719 21.1456 13.3047 23.6178 14.2695 26.0088C13.2945 28.4345 12.4516 30.9415 11.7508 33.495V33.495ZM23.593 44.8694C21.9172 46.622 19.9773 48.0147 17.8648 48.9665C16.7375 49.5816 15.4375 49.6396 14.2797 49.1174C12.6648 48.0496 11.9945 43.9525 12.9086 38.4394C13.0203 37.7894 13.1422 37.1394 13.2844 36.5011C15.5594 37.0582 17.8547 37.4412 20.1805 37.6385C21.5211 39.8089 22.9937 41.8865 24.568 43.8364C24.243 44.1962 23.918 44.5444 23.593 44.8694ZM26.0812 42.049C25.0453 40.7723 24.0094 39.3563 23.0039 37.8358C23.9789 37.8822 24.9844 37.9055 26 37.9055C27.0461 37.9055 28.0719 37.8822 29.0875 37.8242C28.1531 39.2982 27.1477 40.7026 26.0812 42.049V42.049ZM39.3555 45.5309C39.2641 46.9469 38.6547 48.2701 37.6797 49.1638C36.0648 50.2316 32.6219 48.8388 28.9047 45.1943C28.4781 44.7765 28.0516 44.3239 27.6148 43.8596C29.1687 41.8981 30.6008 39.8205 31.9008 37.6385C34.2266 37.418 36.5422 37.0117 38.8273 36.4198C38.9289 36.8957 39.0203 37.3716 39.1016 37.8358C39.5992 40.3428 39.6805 42.9543 39.3555 45.5309V45.5309ZM41.2039 33.0539C40.9195 33.1584 40.6352 33.2628 40.3406 33.3557C39.6297 30.8255 38.7563 28.3533 37.7508 25.9507C38.7258 23.583 39.5484 21.1456 40.2391 18.6502C40.7672 18.8243 41.275 19.01 41.7625 19.1957C46.4953 21.0528 49.8164 23.8151 49.8164 25.9275C49.8164 28.2024 46.2719 31.1388 41.2039 33.0539ZM26 31.3129C28.5695 31.3129 30.6516 28.9336 30.6516 25.9972C30.6516 23.0607 28.5695 20.6814 26 20.6814C23.4305 20.6814 21.3484 23.0607 21.3484 25.9972C21.3484 28.9336 23.4305 31.3129 26 31.3129Z" fill="#121212"/>
</svg>
