<svg width="52" height="52" viewBox="0 0 52 52" fill="none" xmlns="http://www.w3.org/2000/svg">
<path d="M24.9166 4.33333C18.2346 4.33333 13 12.095 13 22.001C13 26.473 14.1175 30.4411 15.9072 33.5156C15.7902 33.8818 15.7083 34.2637 15.7083 34.6667C15.7083 36.7597 17.407 38.4583 19.5 38.4583C21.593 38.4583 23.2916 36.7597 23.2916 34.6667C23.2916 32.5737 21.593 30.875 19.5 30.875C19.4588 30.875 19.4184 30.8855 19.3773 30.8877C18.1314 28.5065 17.3333 25.4026 17.3333 22.001C17.3333 14.773 20.8065 8.66666 24.9166 8.66666C27.703 8.66666 30.1924 11.4767 31.5097 15.5348C33.1196 15.7927 34.7244 16.2329 36.3213 16.7832C34.8523 9.50103 30.368 4.33333 24.9166 4.33333ZM24.6458 18.4167C22.5528 18.4167 20.8541 20.1153 20.8541 22.2083C20.8541 24.3013 22.5528 26 24.6458 26C26.1343 26 27.4094 25.1363 28.0312 23.8883C30.8327 24.014 33.9502 24.8264 36.8926 26.4189C41.1392 28.7199 44.3426 32.2513 45.2461 35.64C45.7119 37.3798 45.5458 38.9088 44.7636 40.1807C43.208 42.7113 39.4908 43.7246 35.2506 43.1894C33.9961 44.4699 32.5639 45.6464 31.0104 46.7103C33.1771 47.3429 35.3239 47.6709 37.3454 47.6709C42.1857 47.6709 46.3304 45.9046 48.4538 42.4531C49.8664 40.1565 50.2048 37.4153 49.4313 34.5228C48.2093 29.9576 44.2899 25.5007 38.9534 22.6103C35.0556 20.4978 30.9991 19.5145 27.3288 19.5296C26.6419 18.8406 25.6945 18.4167 24.6458 18.4167ZM8.87824 25.4414C5.7149 28.0609 3.44606 31.2576 2.5729 34.5228C1.7994 37.4153 2.13777 40.1566 3.55044 42.4489C5.66944 45.9004 9.81634 47.6667 14.6588 47.6667C18.3248 47.6667 22.3881 46.6623 26.2708 44.5563C29.9758 42.55 32.9694 39.7862 34.8782 36.7572C36.6116 36.4083 37.9166 34.8768 37.9166 33.0417C37.9166 30.9487 36.218 29.25 34.125 29.25C32.032 29.25 30.3333 30.9487 30.3333 33.0417C30.3333 33.748 30.5412 34.4037 30.8792 34.9714C29.3474 37.1705 27.0158 39.2289 24.2099 40.7477C17.4521 44.4072 9.67598 44.1458 7.23631 40.1764C6.45414 38.9046 6.29229 37.3798 6.75812 35.64C7.23045 33.8741 8.33633 32.069 9.88117 30.418C9.40883 28.8471 9.07324 27.1812 8.87824 25.4414Z" fill="#121212"/>
</svg>
