<svg width="52" height="52" viewBox="0 0 52 52" fill="none" xmlns="http://www.w3.org/2000/svg">
<path d="M24.5245 39.3127C24.5001 39.3777 24.4757 39.4297 24.5245 39.3127V39.3127ZM44.7665 29.8884C43.1324 29.8877 41.52 30.3881 40.054 31.3508C39.5746 30.0618 39.079 28.9352 38.9977 28.0903C38.9002 27.1045 38.7946 26.5195 38.9083 25.3496C39.0221 24.1797 39.534 22.5224 39.5259 22.4032C39.5177 22.2841 39.4121 21.6883 38.364 21.6774C37.3158 21.6666 36.4139 21.9483 36.3091 22.3166C36.124 22.9896 35.98 23.6815 35.8785 24.3856C35.6916 25.6529 33.783 30.1809 32.7024 32.5424C32.3449 31.6216 32.0443 30.8092 31.9793 30.1593C31.8818 29.1735 31.7761 28.5885 31.8899 27.4186C32.0036 26.2487 32.5155 24.5914 32.5074 24.4722C32.4993 24.3531 32.3936 23.7573 31.3463 23.7464C30.299 23.7356 29.3963 24.0172 29.2907 24.3856C29.185 24.7539 29.0713 25.6205 28.86 26.4546C28.6488 27.2887 26.1065 34.828 25.441 36.7887C25.0998 37.7853 24.8072 38.5869 24.596 39.1285C24.5635 39.2152 24.5391 39.2693 24.5229 39.3127C24.5472 39.2585 24.5635 39.2043 24.5635 39.226C24.3847 39.6918 24.2791 39.9518 24.2791 39.9518V39.9626C24.141 40.3093 23.9866 40.6234 23.9135 40.6234C23.8647 40.6234 23.7591 39.7135 23.9379 38.4677C24.3197 35.8463 25.2216 31.7733 25.2135 31.6325C25.2054 31.5566 25.3841 30.8525 24.6204 30.4734C23.881 30.1159 23.6129 30.7117 23.5479 30.7117C23.4829 30.7117 23.4341 30.9284 23.4341 30.9284C23.4341 30.9284 24.2547 26.3354 21.8587 26.3354C20.3636 26.3354 18.2836 28.5235 17.2615 30.5059C16.6196 30.9717 15.2302 31.9791 13.7677 33.0515C13.2071 33.4631 12.6302 33.8856 12.0858 34.2864C12.0452 34.2322 12.0127 34.1781 11.972 34.1239C9.06407 29.9859 3.695 27.0612 3.92251 21.5041C4.00376 19.4785 4.53189 14.1597 14.2471 7.70358C22.2097 2.41734 28.5757 3.86889 29.6717 7.09696C31.248 11.7008 26.2681 20.2692 17.9992 21.5041C14.8475 21.9699 13.1908 20.345 12.7764 19.7384C12.3458 19.0993 12.2808 19.0668 12.1183 19.186C11.8502 19.381 12.0208 19.9442 12.1183 20.2801C12.362 21.1358 13.3777 22.6524 15.1075 23.4106C16.6269 24.0714 20.3222 24.4397 24.7902 22.1324C29.8099 19.5543 33.7172 12.3724 32.5716 6.36036C31.4048 0.250853 23.8062 -1.75315 16.6212 1.64824C12.3401 3.67391 7.71043 6.85865 4.37995 11.0075C0.423841 15.9471 -0.209104 20.2476 0.0508986 22.0457C0.976347 28.4261 7.5723 32.5857 10.2121 35.6621C10.0821 35.7596 9.96026 35.8463 9.84651 35.9329C8.52293 36.8104 3.49431 40.3201 2.23574 44.0248C0.813845 48.2278 2.47136 51.2392 3.55931 51.6508C6.95479 52.9074 10.4315 50.6434 12.2995 46.9279C14.1674 43.2124 13.9407 38.3594 13.0795 36.1496C13.0714 36.1171 13.0551 36.0954 13.047 36.0629C13.3882 35.7921 13.7376 35.5213 14.087 35.2505C14.7606 34.7197 15.4187 34.2323 15.9956 33.8098C15.6706 34.9797 15.435 36.3879 15.3131 38.4244C15.1668 40.8075 15.9062 43.8948 16.865 45.108C17.2875 45.6388 17.7985 45.6497 18.1154 45.6497C19.2367 45.6497 19.7404 44.4148 20.3003 42.9415C20.9909 41.1434 21.6003 39.0527 21.6003 39.0527C21.6003 39.0527 20.8365 44.7072 22.9247 44.7072C23.6876 44.7072 24.4514 43.3965 24.7934 42.7249V42.7357C24.7934 42.7357 24.8097 42.6924 24.8503 42.6057C24.9316 42.4432 24.9722 42.3458 24.9722 42.3458V42.3133C25.2809 41.6091 25.9553 39.9951 26.9701 37.3303C28.2864 33.8856 29.545 29.5851 29.545 29.5851C29.6666 30.5305 29.8349 31.4641 30.0487 32.3799C30.2762 33.409 30.7556 34.5356 31.1375 35.6296C30.8288 36.1929 30.6419 36.5179 30.6419 36.5179C30.6425 36.5262 30.6454 36.5339 30.65 36.5396C30.4063 36.9729 30.13 37.4387 29.8456 37.8936C28.8064 39.5402 27.5706 41.425 27.4081 41.9666C27.2131 42.6057 27.2618 43.0824 27.6356 43.4507C27.9118 43.7323 28.3994 43.7756 28.9104 43.7215C29.8448 43.6348 30.5029 43.3315 30.8198 43.1365C31.404 42.8572 31.9561 42.4708 32.4603 41.9883C33.4759 40.9917 34.0934 39.5618 34.0365 37.677C34.004 36.6371 33.7522 35.5971 33.4434 34.6222C33.5328 34.4489 33.6303 34.2647 33.7197 34.0806C35.3276 30.95 36.5708 27.514 36.5708 27.514C36.6924 28.4593 36.8607 29.3929 37.0745 30.3087C37.2695 31.1862 37.6506 32.1503 38 33.0927C36.4895 34.7284 35.5551 36.6241 35.2301 37.8698C34.6289 40.1771 35.1001 41.217 35.9858 41.4553C36.3839 41.5637 36.9526 41.3145 37.3751 41.0762C38.0026 40.7975 38.5943 40.392 39.1294 39.8738C40.145 38.8772 41.1273 37.4798 41.0623 35.5841C41.0379 34.7284 40.8592 33.8726 40.6236 33.0493C41.8992 32.3344 43.5559 31.9444 45.6684 32.2694C50.1925 32.9735 51.0781 36.7432 50.9075 38.3139C50.7369 39.8846 49.7862 40.7621 49.4693 41.022C49.1525 41.282 49.055 41.3795 49.0793 41.5745C49.12 41.8561 49.2662 41.8453 49.5344 41.7803C49.9081 41.6936 51.9061 40.5021 51.9954 37.5881C52.1254 33.9051 49.4693 29.8538 44.7641 29.8863L44.7665 29.8884ZM9.89526 45.563C8.40106 47.7403 6.30478 48.5636 5.40371 47.8703C4.43682 47.1207 4.8187 43.9165 6.66229 41.5962C7.78355 40.1879 9.22901 38.888 10.1878 38.0864C10.4071 37.9131 10.724 37.6531 11.114 37.339C11.179 37.2848 11.2115 37.2632 11.2115 37.2632C11.2847 37.1982 11.3659 37.144 11.4472 37.079C12.1207 40.3721 11.4715 43.2752 9.89526 45.5608V45.563ZM20.8121 35.6621C20.2921 37.3628 19.1961 41.6958 18.5298 41.4683C17.961 41.2733 17.6117 37.9694 18.416 34.7197C18.8223 33.084 19.6836 31.1342 20.1954 30.3759C21.0153 29.1518 21.9172 28.7619 22.1284 29.2493C22.4128 29.8884 21.1371 34.6006 20.8121 35.6621ZM29.831 41.4033C29.6116 41.555 29.4085 41.6525 29.311 41.5767C29.2379 41.5225 29.4004 41.3167 29.4004 41.3167C29.4004 41.3167 30.5298 39.7026 30.9766 38.966C31.2366 38.5327 31.5373 38.0236 31.8615 37.4603C31.8615 37.5145 31.8696 37.5686 31.8696 37.6336C31.859 39.5727 30.4623 40.8834 29.8286 41.4033H29.831ZM36.7845 39.291C36.6219 39.1394 36.6463 38.6302 37.1907 37.0487C37.402 36.4312 37.8887 35.3913 38.7345 34.3947C38.8302 34.772 38.8823 35.1665 38.8888 35.5646C38.8807 38.0019 37.5726 38.9119 36.7853 39.291H36.7845Z" fill="#121212"/>
</svg>
